<?xml version="1.0" encoding="UTF-8"?>
<svg width="20px" height="20px" viewBox="0 0 20 20" version="1.1" xmlns="http://www.w3.org/2000/svg" xmlns:xlink="http://www.w3.org/1999/xlink">
    <g id="GP-DS" stroke="none" stroke-width="1" fill="none" fill-rule="evenodd">
        <g id="Desktop-HD-Copy" transform="translate(-536.000000, -655.000000)" fill="#000000">
            <path d="M536,665 C536,670.52 540.47,675 545.99,675 C551.52,675 556,670.52 556,665 C556,659.48 551.52,655 545.99,655 C540.47,655 536,659.48 536,665 Z M538,665 C538,660.58 541.58,657 546,657 C550.42,657 554,660.58 554,665 C554,669.42 550.42,673 546,673 C541.58,673 538,669.42 538,665 Z M545,663 L545,670 L547,670 L547,663 L545,663 Z M545,660 L545,662 L547,662 L547,660 L545,660 Z" id="Shape"></path>
        </g>
    </g>
</svg>
