<?xml version="1.0" encoding="UTF-8"?>
<svg width="20px" height="20px" viewBox="0 0 20 20" version="1.1" xmlns="http://www.w3.org/2000/svg" xmlns:xlink="http://www.w3.org/1999/xlink">
    <!-- Generator: Sketch 55.2 (78181) - https://sketchapp.com -->
    <title>icon/round/info/line</title>
    <desc>Created with Sketch.</desc>
    <g id="GP-DS" stroke="none" stroke-width="1" fill="none" fill-rule="evenodd">
        <g id="Desktop-HD-Copy" transform="translate(-492.000000, -622.000000)" fill="#000000">
            <g id="icon/round/info/line" transform="translate(490.000000, 620.000000)">
                <path d="M2,12 C2,17.52 6.47,22 11.99,22 C17.52,22 22,17.52 22,12 C22,6.48 17.52,2 11.99,2 C6.47,2 2,6.48 2,12 Z M4,12 C4,7.58 7.58,4 12,4 C16.42,4 20,7.58 20,12 C20,16.42 16.42,20 12,20 C7.58,20 4,16.42 4,12 Z M11,10 L11,17 L13,17 L13,10 L11,10 Z M11,7 L11,9 L13,9 L13,7 L11,7 Z" id="Shape"></path>
            </g>
        </g>
    </g>
</svg>