<?xml version="1.0" encoding="UTF-8"?>
<svg width="17px" height="17px" viewBox="0 0 17 17" version="1.1" preserveAspectRatio="xMidYMid" xmlns="http://www.w3.org/2000/svg" xmlns:xlink="http://www.w3.org/1999/xlink">
    <g id="Page-1" stroke="none" stroke-width="0" fill="none" fill-rule="evenodd">
        <g id="Icons" transform="translate(-127.000000, -407.000000)" fill="#92238B">
            <g id="icon/menu/square" transform="translate(123.913776, 403.012302)">
                <path d="M4,8 L8,8 L8,4 L4,4 L4,8 L4,8 Z M10,20 L14,20 L14,16 L10,16 L10,20 L10,20 Z M4,20 L8,20 L8,16 L4,16 L4,20 L4,20 Z M4,14 L8,14 L8,10 L4,10 L4,14 L4,14 Z M10,14 L14,14 L14,10 L10,10 L10,14 L10,14 Z M16,4 L16,8 L20,8 L20,4 L16,4 L16,4 Z M10,8 L14,8 L14,4 L10,4 L10,8 L10,8 Z M16,14 L20,14 L20,10 L16,10 L16,14 L16,14 Z M16,20 L20,20 L20,16 L16,16 L16,20 L16,20 Z" id="Shape"></path>
            </g>
        </g>
    </g>
</svg>
