<svg xmlns="http://www.w3.org/2000/svg" width="16" height="16" viewBox="0 0 16 16">
  <g fill="none" fill-rule="evenodd" stroke="#000000" transform="translate(.5 .5)" stroke-linecap="round" stroke-linejoin="round">
    <path d="M13.0434783 10.1052632L13.0434783 6.63157895C13.0434783 4.32568421 11.5376087 2.36463158 9.43043478 1.60484211 9.28565217.696631579 8.47826087 0 7.5 0 6.52173913 0 5.71173913.696631579 5.5676087 1.60484211 3.45978261 2.36463158 1.95652174 4.32568421 1.95652174 6.63157895L1.95652174 10.1052632C1.95652174 11.1517895 1.08 12 0 12L15 12C13.9180435 12 13.0434783 11.1517895 13.0434783 10.1052632L13.0434783 10.1052632zM10.5 12C10.5 13.657 9.156 15 7.5 15 5.841 15 4.5 13.657 4.5 12"/>
  </g>
</svg>
